<svg xmlns="http://www.w3.org/2000/svg" width="24" height="20" viewBox="0 0 24 20"><defs><style>.a{fill:#fff;}</style></defs><g transform="translate(0 -2)"><path class="a" d="M21,5H17.5L15.8,2.4A1.234,1.234,0,0,0,15,2H9a1.234,1.234,0,0,0-.8.4L6.5,5H3A2.946,2.946,0,0,0,0,8V19a2.946,2.946,0,0,0,3,3H21a2.946,2.946,0,0,0,3-3V8A2.946,2.946,0,0,0,21,5Zm1,14a.945.945,0,0,1-1,1H3a.945.945,0,0,1-1-1V8A.945.945,0,0,1,3,7H7a1.234,1.234,0,0,0,.8-.4L9.5,4h4.9l1.7,2.6A1.8,1.8,0,0,0,17,7h4a.945.945,0,0,1,1,1Z"/><path class="a" d="M12,8a5,5,0,1,0,5,5A4.951,4.951,0,0,0,12,8Zm0,8a3,3,0,1,1,3-3A2.946,2.946,0,0,1,12,16Z"/></g></svg>