<svg xmlns="http://www.w3.org/2000/svg" width="24" height="26.43" viewBox="0 0 24 26.43"><defs><style>.a{fill:#7e8481;}</style></defs><path class="a" d="M25.52,9.645l-10.8-8.4a1.092,1.092,0,0,0-1.44,0l-10.8,8.4a1.091,1.091,0,0,0-.48.96v13.2a3.536,3.536,0,0,0,3.6,3.6H22.4a3.536,3.536,0,0,0,3.6-3.6v-13.2A1.091,1.091,0,0,0,25.52,9.645ZM16.4,25.005H11.6v-9.6h4.8Zm7.2-1.2a1.134,1.134,0,0,1-1.2,1.2H18.8v-10.8a1.134,1.134,0,0,0-1.2-1.2H10.4a1.134,1.134,0,0,0-1.2,1.2v10.8H5.6a1.134,1.134,0,0,1-1.2-1.2v-12.6L14,3.765l9.6,7.44Z" transform="translate(-2 -0.975)"/></svg>