<svg xmlns="http://www.w3.org/2000/svg" width="39" height="39" viewBox="0 0 39 39"><defs><style>.a{fill:#fff;fill-rule:evenodd;}</style></defs><g transform="translate(-5 -5)"><g transform="translate(5 5)"><path class="a" d="M25.911,41.742V31.919a7.1,7.1,0,0,1,7.1-7.1h2.958a8.433,8.433,0,0,1-7.527,7.325l.222,2.184a10.627,10.627,0,0,0,9.569-10.606v-1.1H33.008a9.274,9.274,0,0,0-7.1,3.3v-.795h0a9.3,9.3,0,0,0-9.291-9.246H11.4v1.1A10.674,10.674,0,0,0,22.058,27.65v-2.2a8.48,8.48,0,0,1-8.4-7.369h2.957a7.1,7.1,0,0,1,7.1,7.1v16.6a17.327,17.327,0,1,1,2.2-.043M24.5,5A19.5,19.5,0,1,0,44,24.5,19.522,19.522,0,0,0,24.5,5" transform="translate(-5 -5)"/></g></g></svg>