<svg xmlns="http://www.w3.org/2000/svg" width="24" height="16.8" viewBox="0 0 24 16.8"><defs><style>.a{fill:#fff;}</style></defs><g transform="translate(-2 -5)"><path class="a" d="M24.8,11H3.2A1.134,1.134,0,0,0,2,12.2a1.134,1.134,0,0,0,1.2,1.2H24.8A1.134,1.134,0,0,0,26,12.2,1.134,1.134,0,0,0,24.8,11Z" transform="translate(0 1.2)"/><path class="a" d="M3.2,7.4H24.8A1.134,1.134,0,0,0,26,6.2,1.134,1.134,0,0,0,24.8,5H3.2A1.134,1.134,0,0,0,2,6.2,1.134,1.134,0,0,0,3.2,7.4Z"/><path class="a" d="M24.8,17H3.2a1.2,1.2,0,1,0,0,2.4H24.8a1.2,1.2,0,1,0,0-2.4Z" transform="translate(0 2.4)"/></g></svg>