<svg xmlns="http://www.w3.org/2000/svg" width="24" height="20" viewBox="0 0 24 20"><defs><style>.a{fill:#fff;}</style></defs><g transform="translate(0 -2)"><path class="a" d="M4,11a.945.945,0,0,0,1-1V3A.945.945,0,0,0,4,2,.945.945,0,0,0,3,3v7A.945.945,0,0,0,4,11Z"/><path class="a" d="M12,11a.945.945,0,0,0-1,1v9a1,1,0,0,0,2,0V12A.945.945,0,0,0,12,11Z"/><path class="a" d="M20,13a.945.945,0,0,0,1-1V3a1,1,0,0,0-2,0v9A.945.945,0,0,0,20,13Z"/><path class="a" d="M7,13H1a1,1,0,0,0,0,2H3v6a.945.945,0,0,0,1,1,.945.945,0,0,0,1-1V15H7a1,1,0,0,0,0-2Z"/><path class="a" d="M15,7H13V3a1,1,0,0,0-2,0V7H9A.945.945,0,0,0,8,8,.945.945,0,0,0,9,9h6a.945.945,0,0,0,1-1A.945.945,0,0,0,15,7Z"/><path class="a" d="M23,15H17a1,1,0,0,0,0,2h2v4a1,1,0,0,0,2,0V17h2a1,1,0,0,0,0-2Z"/></g></svg>