<svg xmlns="http://www.w3.org/2000/svg" width="39.98" height="40" viewBox="0 0 39.98 40"><defs><style>.a{fill:#48ac71;}</style></defs><g transform="translate(-1.014 -1)"><g transform="translate(1.014 1)"><path class="a" d="M8.34,23.47a1.334,1.334,0,0,0-.917.4L5.4,25.9a1.334,1.334,0,1,0,1.886,1.886L9.31,25.76a1.334,1.334,0,0,0-.969-2.29Z" transform="translate(0.312 6.504)"/><path class="a" d="M26.82,4.99a1.334,1.334,0,0,0-.917.4L23.876,7.421a1.334,1.334,0,1,0,1.886,1.886L27.789,7.28a1.334,1.334,0,0,0-.969-2.29Z" transform="translate(6.483 0.332)"/><path class="a" d="M24.8,23.47a1.334,1.334,0,0,0-.927,2.29L25.9,27.787A1.334,1.334,0,1,0,27.787,25.9L25.76,23.874a1.334,1.334,0,0,0-.959-.4Z" transform="translate(6.485 6.504)"/><path class="a" d="M6.324,4.99a1.334,1.334,0,0,0-.93,2.29L7.421,9.307A1.334,1.334,0,1,0,9.308,7.421L7.281,5.394a1.334,1.334,0,0,0-.956-.4Z" transform="translate(0.314 0.333)"/><path class="a" d="M19.005,7A12.005,12.005,0,1,0,31.01,19.005,12.026,12.026,0,0,0,19.005,7Zm0,2.668a9.337,9.337,0,1,1-9.337,9.337A9.317,9.317,0,0,1,19.005,9.668Z" transform="translate(0.985 1.004)"/><path class="a" d="M16.313,1A1.334,1.334,0,0,0,15,2.352V4.984a1.334,1.334,0,1,0,2.668,0V2.352A1.334,1.334,0,0,0,16.313,1Z" transform="translate(3.656 -1)"/><path class="a" d="M16.313,27A1.334,1.334,0,0,0,15,28.352v2.631a1.334,1.334,0,1,0,2.668,0V28.352A1.334,1.334,0,0,0,16.313,27Z" transform="translate(3.656 7.682)"/><path class="a" d="M28.347,15a1.334,1.334,0,1,0,0,2.668h2.631a1.334,1.334,0,1,0,0-2.668Z" transform="translate(7.668 3.675)"/><path class="a" d="M2.348,15a1.334,1.334,0,1,0,0,2.668H4.98A1.334,1.334,0,1,0,4.98,15Z" transform="translate(-1.014 3.675)"/></g></g></svg>