<svg xmlns="http://www.w3.org/2000/svg" width="17.219" height="41.03" viewBox="0 0 17.219 41.03"><defs><style>.a{fill:#48ac71;}</style></defs><g transform="translate(-10.439 0.026)"><path class="a" d="M23.3,24.907V3.921a1.674,1.674,0,0,0-.057-.33,4.236,4.236,0,0,0-8.381,0,1.674,1.674,0,0,0-.057.33V24.907a8.609,8.609,0,1,0,8.495,0Zm-6.217-4.259h1.344a1.139,1.139,0,1,0,0-2.277H17.079V14.955h1.344a1.139,1.139,0,1,0,0-2.277H17.079V9.261h1.344a1.139,1.139,0,1,0,0-2.277H17.079V4.251a1.97,1.97,0,0,1,3.94,0V24.008a8.631,8.631,0,0,0-3.94,0Zm1.97,18.071a6.331,6.331,0,1,1,6.331-6.331,6.331,6.331,0,0,1-6.331,6.331Z" transform="translate(0)"/><path class="a" d="M18.486,24.94a3.986,3.986,0,1,0,3.986,3.986,3.986,3.986,0,0,0-3.986-3.986Zm0,5.694a1.708,1.708,0,1,1,1.708-1.708,1.708,1.708,0,0,1-1.708,1.708Z" transform="translate(0.563 3.463)"/></g></svg>