<svg xmlns="http://www.w3.org/2000/svg" width="21.6" height="24" viewBox="0 0 21.6 24"><defs><style>.a{fill:#fff;}</style></defs><g transform="translate(-3 -2)"><path class="a" d="M18.6,14H9a5.942,5.942,0,0,0-6,6v2.4a1.134,1.134,0,0,0,1.2,1.2,1.134,1.134,0,0,0,1.2-1.2V20A3.536,3.536,0,0,1,9,16.4h9.6A3.536,3.536,0,0,1,22.2,20v2.4a1.2,1.2,0,1,0,2.4,0V20A5.942,5.942,0,0,0,18.6,14Z" transform="translate(0 2.4)"/><path class="a" d="M13,14a5.942,5.942,0,0,0,6-6A6,6,0,1,0,7,8,5.942,5.942,0,0,0,13,14Zm0-9.6A3.536,3.536,0,0,1,16.6,8,3.6,3.6,0,0,1,9.4,8,3.536,3.536,0,0,1,13,4.4Z" transform="translate(0.8)"/></g></svg>