<svg xmlns="http://www.w3.org/2000/svg" width="40" height="33.125" viewBox="0 0 40 33.125"><defs><style>.a{fill:#48ac71;fill-rule:evenodd;}</style></defs><path class="a" d="M577.658,272.91l1.425-2.221c-.118-.148-.256-.305-.394-.462-1.825-2.066-3.326-4.567.03-10.344,2.516-4.329,5.308-6.818,8.537-7.608,2.9-.709,6.1.024,9.512,2.182,5.458,3.454,6.139,8.029,5.629,10.716.544.344.92.584,1.046.67a2.754,2.754,0,0,1,1.228,1.842,3.184,3.184,0,0,1-.566,2.271l-4.863,7.172,8.909-3.754,2.629-4.766a1.354,1.354,0,0,1,1.9-.5,9.388,9.388,0,0,1,3.071,3.455,9.117,9.117,0,0,1,.957,4.5,1.354,1.354,0,0,1-1.667,1.2l-5.817-1.4-12.773,5.381-1.654,2.439a3,3,0,0,1-2.015,1.417,2.827,2.827,0,0,1-.483.041,3.364,3.364,0,0,1-1.873-.616c-.819-.515-10.712-6.736-12.045-7.693a2.908,2.908,0,0,1-.775-3.835c.016-.029.033-.058.051-.086Zm36.185,1.28a6.241,6.241,0,0,0-.505-1.395,6.425,6.425,0,0,0-.991-1.417l-1.194,2.163,2.69.649ZM595.32,256.746c-2.8-1.774-5.231-2.377-7.42-1.84-2.475.606-4.713,2.679-6.839,6.338-2.571,4.425-1.55,5.814-.451,7.066l6.128-9.547a2.91,2.91,0,0,1,1.763-1.349,2.766,2.766,0,0,1,2.252.485c.866.539,5.618,3.494,9.064,5.652-.015-1.725-.748-4.434-4.5-6.807Zm-15.4,17.849a.2.2,0,0,0,.042.037c1.034.743,8.265,5.311,11.945,7.623.036.022.07.046.1.072a.757.757,0,0,0,.309.1c.014,0,.1-.051.212-.231l.018-.027,9.346-13.78c.054-.08.106-.216.117-.227a.4.4,0,0,0-.1-.089c-.629-.432-9.318-5.844-12.613-7.893l-.057-.037a.935.935,0,0,0-.119-.072l-.032.033c-.016.031-.034.06-.052.089l-9.057,14.11a.8.8,0,0,0-.058.288Z" transform="translate(-576.723 -252.013)"/></svg>