<?xml version="1.0" encoding="UTF-8" standalone="no"?>
<!-- Generator: Adobe Illustrator 15.0.0, SVG Export Plug-In . SVG Version: 6.00 Build 0)  -->

<svg
   xmlns:dc="http://purl.org/dc/elements/1.1/"
   xmlns:cc="http://creativecommons.org/ns#"
   xmlns:rdf="http://www.w3.org/1999/02/22-rdf-syntax-ns#"
   xmlns:svg="http://www.w3.org/2000/svg"
   xmlns="http://www.w3.org/2000/svg"
   xmlns:sodipodi="http://sodipodi.sourceforge.net/DTD/sodipodi-0.dtd"
   xmlns:inkscape="http://www.inkscape.org/namespaces/inkscape"
   version="1.1"
   x="0px"
   y="0px"
   width="595.279px"
   height="841.891px"
   viewBox="0 0 595.279 841.891"
   enable-background="new 0 0 595.279 841.891"
   xml:space="preserve"
   id="svg3148"
   inkscape:version="0.48.0 r9654"
   sodipodi:docname="trollface.svg"><metadata
     id="metadata3224"><rdf:RDF><cc:Work
         rdf:about=""><dc:format>image/svg+xml</dc:format><dc:type
           rdf:resource="http://purl.org/dc/dcmitype/StillImage" /></cc:Work></rdf:RDF></metadata><defs
     id="defs3222" /><sodipodi:namedview
     pagecolor="#ffffff"
     bordercolor="#666666"
     borderopacity="1"
     objecttolerance="10"
     gridtolerance="10"
     guidetolerance="10"
     inkscape:pageopacity="0"
     inkscape:pageshadow="2"
     inkscape:window-width="1676"
     inkscape:window-height="1006"
     id="namedview3220"
     showgrid="false"
     inkscape:zoom="0.93598816"
     inkscape:cx="162.48821"
     inkscape:cy="420.9455"
     inkscape:window-x="0"
     inkscape:window-y="0"
     inkscape:window-maximized="0"
     inkscape:current-layer="svg3148" /><g
     id="Layer_1"><g
       id="g3151"><path
         d="M574.269,248.75c-2.188-4.97-5.779-9.83-8.96-13.77c-6.829-8.46-14.469-16.3-22.149-23.38    c-8.18-7.551-15.619-14.601-21.71-23.73c-5.98-8.96-10.311-19.55-15.891-29.649c-5.5-9.94-11.25-19.301-17.8-27.641    c-6.561-8.37-14.79-15.58-23.38-22.16c-4.241-3.239-9.08-6.5-14.221-8.5c-5.449-2.13-12.46-2.8-19.689-3.14    c-14.39-0.68-29.03-0.56-44.76-0.78h-58.53c-38.41,0.84-77.2,0.42-113.02,4.03c-17.551,1.77-34.9,4.38-51.36,7.16    c-16.72,2.82-32.3,6.59-46.11,12.42c-13.619,5.75-26.06,13.28-36.93,21.6c-5.57,4.261-10.81,8.98-14.88,14.431    c-2.2,2.949-4.14,5.87-5.15,9.52c-1.04,3.771-0.659,8.44-1.34,13.2c-1.24,8.75-3.58,15.64-8.17,21.15    c-2.2,2.64-4.7,5.05-7.5,7.159c-2.72,2.061-5.61,3.88-8.16,6.38c-9.87,9.66-17.319,21.471-16.569,41.851    c0.02,0.13-0.021,0.2-0.11,0.229v19.881c0.229,10.25,3.1,18.02,6.49,25.33c3.68,7.909,7.84,15.18,11.64,23.05    c3.97,8.22,5.65,16.87,6.271,28.42c0.569,10.85,0.22,22.56,0.22,34.24c0,22.62-0.34,45.529-1.68,67.699    c-0.681,11.39-1.601,21.4-2.12,32.57c-0.29,5.98,0.159,11.561,1.67,15.67c1.52,4.09,3.75,7.59,6.05,11.3    c4.32,6.979,9.85,13.75,16,18.69c3.16,2.529,6.82,4.67,10.52,6.819c3.641,2.12,7.46,4.11,11.41,5.931    c8.16,3.771,17.32,5.45,28.76,5.93c11,0.471,22.61,0.561,34.131,0.561c11.79,0,23.3,0.081,34.239-0.439    c11.07-0.53,21.19-1.891,30.78-3.92c19.16-4.061,36.87-9.101,56.28-13.091c4.87-1.009,9.79-2.119,14.66-2.689    c2.58-0.3,4.85-0.689,7.17-1.449c2.189-0.73,4.33-1.531,6.37-2.351c32.84-13.141,62.319-30.2,95.01-43.761    c16.5-6.84,31.34-14.809,46.22-23.159c7.37-4.141,14.66-8.551,21.59-13.101c6.87-4.5,13.2-9.729,19.36-15.33    c3-2.721,6.09-5.521,8.96-8.391c2.92-2.92,6.03-5.699,8.72-8.619c5.69-6.16,10.89-12.2,15.45-19.24    c4.61-7.13,7.75-15.04,11.97-22.721c5.24-9.539,11.2-17.77,18.131-25.18c1.38-1.479,3.101-2.75,4.47-4.25    c8.399-9.17,16.07-18.22,23.171-28.87c2.269-3.41,4.539-7.25,5.819-11.529c1.39-4.66,1.51-9.78,1.79-15.551v-19.25    C577.26,260.96,576.619,254.09,574.269,248.75z M556.14,311.64c-4.01,6.41-8.67,12.6-14.546,16.78    c-1.328,0.947-2.761,1.762-4.249,2.514c-0.348,1.018-0.999,1.917-1.952,2.498c-0.332,0.657-0.811,1.233-1.43,1.67    c-0.08,1.424-0.683,2.811-1.813,3.7c-0.232,1.379-1.48,2.327-2.308,3.278c-2.93,3.351-6.04,6.681-8.729,10.4    c-3.551,4.92-6.67,10.23-9.62,15.78c-3.03,5.689-5.431,11.529-8.51,16.899c-9.201,16.061-22.75,27.891-36.141,40.061    c-8.911,8.09-19.46,14.569-30.101,20.7c-10.8,6.22-21.749,12.13-33.021,17.79c-11.239,5.659-23.21,10.18-35.13,15.67    c-23.21,10.68-45.47,22.79-69.27,32.34c-6.04,2.431-12.28,5.17-19.25,6.16c-6.98,0.989-14.051,2.7-21.04,4.359    c-13.87,3.311-27.351,6.84-40.62,10.181c-13.48,3.4-27.57,6.46-42.971,7.84c-15.77,1.4-32.239,1.75-49.239,1.34    c-8.471-0.2-15.88-1.16-22.38-3.02c-6.5-1.87-12.33-4.41-18.131-7.28c-5.71-2.819-11.069-5.88-15.439-9.96    c-6.66-6.21-12.04-13.08-16.561-21.59c-1.489-2.811-2.619-6.101-3.02-9.631c-0.84-7.3,0.54-15.79,1.229-23.72    c2.74-31.55,2.24-65.17,2.24-99.149c0-8.61,0.09-17.021-0.34-25.061c-1.26-23.76-14.189-36.66-20.92-55.28    c-4.35-12.02-4.15-31.95-1.01-45.32c0.85-3.609,1.84-6.47,3.689-9.069c3.4-4.78,7.811-9.2,12.311-13.09    c6.729-5.83,13.75-11.851,17.91-20.141c2.739-5.479,4.47-12.12,4.81-20.59c0.31-7.77,2.89-14.24,6.71-18.689    c3.87-4.521,9-8.12,13.88-11.53c5.03-3.51,10.48-6.51,15.891-9.51c5.51-3.061,11.13-5.91,17.01-8.391    c6.16-2.6,11.93-4.99,19.13-6.27c5.543-0.984,11.579-1.472,17.834-1.681c3.28-1.125,6.521-2.395,9.793-3.511    c2.886-0.984,6.018-2.022,9.098-1.913c4.696-1.755,11.1-2.389,16.873-3.076c18.42-2.18,38.03-3.46,57.41-4.369    c16.37-0.761,33.12-1.561,49.91-1.561c3.38,0,6.83,0.04,10.18-0.11c6.83-0.319,13.66,0.08,20.37-0.229    c5.401-0.25,12.471-0.11,18.352-0.11c6.01,0,12.199-0.149,17.909,0.11c12.21,0.57,24.27-0.26,35.689,0.229    c12.04,0.5,23.62-0.14,33.58,2.351c4.72,1.17,8.6,3.31,12.42,5.59c3.76,2.25,7.16,5.08,10.18,7.72    c6.49,5.681,12.39,11.49,17.57,18.351c5.05,6.689,9.5,14.37,13.76,22.16c6.141,11.239,11.551,24.319,18.58,35.359    c1.07,1.68,2.2,3.54,3.689,5.26c0.865,1.003,3.415,3.121,3.722,4.684c0.959,0.446,1.657,1.191,2.102,2.073    c1.113,0.494,2.125,1.187,2.934,2.128c0.899,1.048,1.569,2.167,2.183,3.326c0.728,0.35,1.305,0.871,1.729,1.495    c0.717,0.232,1.424,0.471,2.101,0.734c3.479,1.35,6.36,4,9.07,6.6c5.26,5.051,9.949,10.681,14.54,16.79    c4.5,5.971,9.079,12.32,11.42,19.91C571.95,281.26,563.3,300.18,556.14,311.64z"
         id="path3153" /><path
         fill="#FFFFFF"
         d="M577.4,96c0,57.44,0,114.891,0,172.33c-0.141-7.37-0.78-14.24-3.131-19.58    c-2.189-4.97-5.779-9.83-8.96-13.77c-6.829-8.46-14.47-16.3-22.149-23.38c-8.18-7.551-15.619-14.601-21.71-23.73    c-5.979-8.96-10.311-19.55-15.891-29.649c-5.5-9.94-11.25-19.301-17.8-27.641c-6.561-8.37-14.79-15.58-23.38-22.16    c-4.24-3.239-9.08-6.5-14.221-8.5c-5.449-2.13-12.46-2.8-19.689-3.14c-14.39-0.68-29.029-0.56-44.76-0.78    C449.6,96,513.499,96,577.4,96z"
         id="path3155" /><path
         fill="#FFFFFF"
         d="M577.4,287.58c-0.15,87.62,0.3,176.32-0.229,263.75c-186.34,0-372.59,0-558.95,0c-0.12,0-0.229,0-0.34,0    c0-92.1,0-184.22,0-276.32c0.229,10.25,3.1,18.021,6.49,25.331c3.68,7.909,7.84,15.18,11.64,23.05    c3.97,8.22,5.65,16.87,6.271,28.42c0.569,10.85,0.22,22.56,0.22,34.24c0,22.62-0.34,45.529-1.681,67.699    c-0.68,11.391-1.6,21.4-2.119,32.57c-0.29,5.979,0.159,11.561,1.67,15.67c1.52,4.09,3.75,7.59,6.05,11.3    c4.32,6.979,9.85,13.75,16,18.69c3.16,2.529,6.82,4.67,10.52,6.819c3.641,2.119,7.46,4.109,11.41,5.931    c8.16,3.771,17.32,5.449,28.76,5.93c11,0.471,22.61,0.561,34.131,0.561c11.789,0,23.3,0.08,34.239-0.439    c11.07-0.53,21.19-1.891,30.78-3.92c19.16-4.061,36.87-9.101,56.28-13.091c4.87-1.01,9.79-2.119,14.66-2.689    c2.579-0.3,4.85-0.689,7.17-1.449c2.189-0.729,4.33-1.53,6.37-2.351c32.84-13.141,62.318-30.2,95.01-43.761    c16.5-6.84,31.34-14.811,46.22-23.159c7.37-4.141,14.66-8.551,21.59-13.101c6.87-4.5,13.2-9.729,19.36-15.33    c3-2.721,6.09-5.521,8.96-8.391c2.92-2.92,6.029-5.699,8.72-8.619c5.69-6.16,10.891-12.2,15.45-19.24    c4.609-7.13,7.75-15.04,11.97-22.721c5.24-9.539,11.2-17.77,18.131-25.18c1.38-1.479,3.101-2.75,4.47-4.25    c8.399-9.17,16.07-18.22,23.17-28.87c2.271-3.41,4.54-7.25,5.82-11.529C576.999,298.47,577.119,293.35,577.4,287.58z"
         id="path3157" /><path
         fill="#FFFFFF"
         d="M566.21,262.62c-2.341-7.59-6.921-13.939-11.425-19.91c-4.59-6.109-9.279-11.74-14.54-16.79    c-2.71-2.6-5.59-5.25-9.069-6.6c-0.675-0.263-1.381-0.501-2.096-0.733c0.729,1.073,1.01,2.441,0.847,3.744    c1.772,1.14,3.331,2.492,4.953,3.929c4.73,4.189,8.569,8.899,11.63,14.43c1.58,2.85,2.811,5.93,3.471,9.51    c0.659,3.59,0.72,7.771,0.789,12.2c0.131,9.01,0.131,16.77-0.68,25.18c-0.761,7.97-1.521,15.86-4.583,21.48    c-2.99,5.49-7.52,9.84-13.319,12.76c-2.81,1.42-5.899,2.7-9.07,3.92c-3.119,1.2-6.449,2.761-10.069,2.681    c0.09-1.33,1.561-1.79,2.47-2.351c2.981-1.819,6.24-3.66,9.511-5.37c4.38-2.279,8.82-4.47,12.311-7.609    c7.319-6.58,8.93-16.631,9.96-29.761c0.48-6.16,0.561-12.64,0.561-19.14c0-6.38-0.669-12.53-2.689-17.23    c-2.88-6.699-7.479-12.43-12.2-17.68c-1.128-1.266-2.717-3.087-4.266-4.166c-0.042,0.047-0.087,0.092-0.131,0.138    c-0.391,0.589-0.9,1.115-1.576,1.511c-2.253,1.32-5.598,0.629-6.841-1.794c-0.379-0.738-0.72-1.514-1.085-2.275    c-0.93-0.114-1.86-0.227-2.771-0.354c-10.76-1.51-22.48-1.949-33.681-3.25c-0.859-0.1-1.909-0.06-2.579-0.67    c1.646-0.086,3.343-0.16,5.062-0.226c-3.12-2.27-2.083-8.809,3.038-9.249c9.058-0.778,18.044,0.664,27.086,0.956    c0.727-0.489,1.64-0.79,2.748-0.79c0.823,0,1.54,0.165,2.153,0.449c-0.307-1.563-2.856-3.678-3.721-4.681    c-1.489-1.72-2.62-3.58-3.689-5.26c-7.029-11.04-12.439-24.12-18.58-35.36c-4.26-7.79-8.71-15.47-13.76-22.159    c-5.18-6.86-11.08-12.671-17.57-18.351c-3.021-2.64-6.42-5.47-10.18-7.72c-3.82-2.28-7.7-4.42-12.421-5.59    c-9.96-2.49-21.539-1.851-33.579-2.351c-11.419-0.489-23.479,0.34-35.689-0.229c-5.71-0.26-11.899-0.11-17.91-0.11    c-5.88,0-12.95-0.14-18.351,0.11c-6.71,0.31-13.54-0.09-20.37,0.229c-3.35,0.15-6.8,0.11-10.18,0.11    c-16.79,0-33.54,0.8-49.91,1.56c-19.38,0.91-38.99,2.19-57.41,4.37c-5.772,0.688-12.177,1.321-16.873,3.076    c1.078,0.038,2.149,0.214,3.202,0.585c0.983,0.347,1.78,0.91,2.378,1.599c7.285-0.062,14.577-1.24,21.842-1.538    c10.166-0.417,20.323-0.748,30.479-1.391c10.272-0.651,20.443-1.455,30.639-2.899c8.854-1.255,17.702-2.467,26.644-2.725    c0.228-0.034,0.457-0.058,0.688-0.058h1.667c1.74,0,3.004,0.727,3.804,1.785c0.29-0.014,0.58-0.027,0.871-0.041    c4.579-0.826,9.135-1.826,13.796-2.244c8.024-0.72,16.11-0.671,24.131,0.113c7.772,0.76,14.918,3.116,22.394,5.232    c5.885,1.666,11.958,0.926,17.528,3.837c1.485,0.776,2.568,2.708,2.51,4.473c1.3,0.129,2.617,0.376,3.962,0.689    c1.745,0.406,2.806,1.607,3.269,3.033c0.798,0.338,1.593,0.679,2.381,1.025c1.711,0.17,3.414,0.352,5.068,0.664    c6.455,1.218,12.449,3.934,17.706,7.87c5.865,4.392,11.109,10.728,17.771,13.911c5.092,2.433,10.377,2.737,14.679,6.782    c0.831,0.781,1.288,1.645,1.463,2.512c0.658-0.004,1.324,0.045,1.998,0.202c3.143,0.73,5.563,3.01,8.666,3.667    c6.308,1.336,3.632,10.975-2.658,9.643c-1.787-0.378-3.487-1.035-5.06-1.982c-1.534-0.923-2.308-2.222-3.304-0.373    c-1.444,2.679-3.063,5.342-4.866,7.798c-1.001,1.363-2.038,2.635-3.145,3.775c0.334,0.646,0.604,1.323,0.773,2.039    c-0.771-0.05-1.485-0.34-2.15-0.724c-2.691,2.35-5.844,3.876-9.92,3.979c-6.452,0.162-6.437-9.838,0-10    c0.72-0.018,1.384-0.166,2.006-0.408c-1.188-1.118-2.354-2.25-3.475-3.367c-12.01-12.01-26.979-20.819-44.2-27.979    c-5.64-2.351-11.51-4.47-17.79-6.26c-6.27-1.79-12.89-3.07-19.92-4.141c-13.89-2.14-28.779-3.76-44.88-3.03    c-14.9,0.681-28.11,3.82-42.521,5.601c-28.64,3.53-62.42,2.47-91.42-0.34c-7.55-0.73-15.01-1.74-22.609-1.45    c-3.91,0.15-7,0.9-9.62,2.35c-2.5,1.38-4.78,3.78-8.28,3.24c-0.39-1.46,0.59-2.21,1.23-2.91c1.89-2.05,4.829-4.14,7.939-5.029    c5.851-1.681,14.88-0.971,21.271-0.45c6.93,0.56,13.859,1.31,20.699,1.899c13.67,1.19,28.4,2.13,42.971,2.13    c14.97,0,28.42-1.109,42.069-3.13c9.73-1.439,18.92-3.729,29.32-4.59c1.74-0.149,3.47-0.25,5.26-0.34    c17.431-0.89,35.5,0.87,50.92,3.14c7.25,1.061,13.979,2.11,20.25,3.91c6.19,1.78,11.96,4.16,17.681,6.49    c17.219,7.03,32.08,16.25,44.649,27.98c1.262,1.175,2.484,2.488,3.676,3.825c2.479-2.909,4.161-7.396,6.166-10.383    c-0.088-0.073-0.175-0.141-0.261-0.222c-2.444-2.297-5.946-2.476-8.958-3.637c-2.962-1.142-5.561-2.613-8.107-4.524    c-5.434-4.078-10.191-9.126-15.937-12.763c-5.407-3.423-10.864-4.92-17.171-5.613c-5.652-0.621-11.209-1.318-16.148-4.347    c-0.645-0.395-1.16-0.926-1.554-1.527c-1.748-0.329-3.496-0.661-5.252-0.969c-3.258-0.57-4.079-3.144-3.381-5.521    c-2.546-0.408-4.995-1.086-7.483-1.842c-7.279-2.213-14.205-3.89-21.842-4.26c-7.55-0.365-15.249-0.437-22.711,0.938    c-6.095,1.123-12.145,2.454-18.324,2.781c-1.068,0.156-2.173,0.186-3.264,0.082c-1.86-0.178-3.179-1.138-3.966-2.388    c-6.872,0.629-13.705,1.643-20.559,2.584c-9.864,1.355-19.759,2.004-29.692,2.604c-10.703,0.647-21.484,0.638-32.166,1.505    c-7.685,0.624-15.214,1.388-22.838,1.01c-1.427,0.553-2.949,0.895-4.491,1.105c-0.805,0.942-2.004,1.58-3.622,1.58    c-0.232,0-0.444-0.03-0.659-0.054c-0.581,0.245-1.248,0.388-2.008,0.388c-0.917,0-1.699-0.208-2.355-0.554    c-1.579,0.334-3.155,0.667-4.749,0.901c-1.559,0.546-3.13,1.056-4.734,1.474c-6.246,1.629-8.894-8.016-2.658-9.643    c0.33-0.086,0.657-0.183,0.985-0.275c0.782-0.714,1.839-1.189,3.177-1.237c0.361-0.013,0.718-0.053,1.075-0.091    c0.055-0.019,0.11-0.04,0.166-0.059c-6.258,0.209-12.295,0.696-17.839,1.681c-7.2,1.279-12.971,3.67-19.13,6.27    c-5.881,2.48-11.5,5.33-17.011,8.39c-5.409,3-10.859,6-15.89,9.511c-4.88,3.41-10.01,7.01-13.88,11.529    c-3.82,4.45-6.4,10.92-6.71,18.69c-0.34,8.47-2.07,15.11-4.811,20.59c-4.159,8.29-11.18,14.311-17.909,20.14    c-4.5,3.891-8.91,8.311-12.311,13.091c-1.85,2.6-2.84,5.46-3.689,9.069c-3.141,13.37-3.341,33.301,1.01,45.32    c6.729,18.62,19.66,31.521,20.92,55.28c0.43,8.04,0.34,16.45,0.34,25.06c0,33.98,0.5,67.6-2.24,99.15    c-0.689,7.93-2.069,16.42-1.229,23.72c0.399,3.53,1.529,6.82,3.02,9.63c4.521,8.511,9.9,15.38,16.561,21.591    c4.37,4.08,9.729,7.141,15.439,9.96c5.8,2.87,11.63,5.409,18.13,7.279c6.5,1.861,13.91,2.821,22.38,3.021    c17,0.41,33.471,0.06,49.24-1.34c15.4-1.38,29.49-4.44,42.971-7.84c13.27-3.341,26.75-6.87,40.619-10.181    c6.99-1.66,14.061-3.37,21.04-4.359c6.971-0.99,13.209-3.729,19.25-6.16c23.801-9.55,46.061-21.66,69.271-32.34    c11.92-5.49,23.891-10.011,35.13-15.671c11.271-5.659,22.221-11.569,33.021-17.789c10.641-6.131,21.19-12.61,30.101-20.7    c13.391-12.17,26.94-24,36.141-40.061c3.079-5.37,5.48-11.21,8.51-16.899c2.95-5.551,6.069-10.86,9.62-15.78    c2.689-3.72,5.799-7.05,8.729-10.4c0.826-0.951,2.074-1.897,2.308-3.274c-0.096,0.075-0.197,0.144-0.3,0.212    c-0.742,1.396-2.14,2.428-4.207,2.428c-0.889,0-1.65-0.195-2.294-0.522c-1.109-0.057-2.022-0.405-2.724-0.96    c-0.277-0.025-0.557-0.062-0.843-0.122c0.064-0.162,0.148-0.311,0.231-0.46c-2.235-2.603-1.36-7.6,2.61-8.335    c0.319-0.502,0.737-0.94,1.243-1.288c-0.389-2.739,1.2-5.813,4.775-5.813c0.533,0,1.007,0.089,1.451,0.215    c0.23-0.029,0.467-0.048,0.716-0.048c4.023,0,5.535,3.892,4.538,6.82c1.487-0.751,2.918-1.565,4.245-2.511    c5.88-4.181,10.54-10.37,14.55-16.78C563.3,300.18,571.949,281.26,566.21,262.62z M430.13,212.49    c6.529,0.37,13.199,1.24,19.59,2.58c1.261,0.26,4.54,0.93,4.811,1.79c0.52,1.67-2.061,3.09-3.021,3.58    c-4.17,2.09-11.03,3.14-16.9,2.01c2.72-1.57,7.46-1.12,9.96-2.91c-0.59-1.189-2.101-1.529-3.25-2.01    c-3.5-1.49-7.83-2.98-11.189-4.7c-0.091-0.02-0.111-0.12-0.221-0.109C429.96,212.62,430.01,212.52,430.13,212.49z M436.18,232.07    c-2.97-1.36-5.9-2.75-7.84-5.14C432.159,224.96,439.111,227.27,436.18,232.07z M447.81,237c4.631-2.09,8.841-4.49,14.101-5.71    c5.35-1.24,11.149-1.689,17.91-2.01c-0.021,0,0.04-0.11,0.109-0.11c13.67-0.649,23.569,1.79,31.109,7.16    c7.4,5.26,12.921,12.48,17.12,21.03c4,8.15,6.71,18.97,4.141,32.01c-1.48,7.53-4.25,14.801-8.388,20.25    c-1.319,1.75-3.079,4.101-5.479,4.03c-2.33-0.06-3.74-1.899-4.14-3.24c-0.57-1.87-0.03-4.96,0.55-7.279    c1.66-6.57,4.48-12.051,6.05-18.801c2.37-10.24-2.279-18.27-6.489-24.95c-4.321-6.84-9.021-13.149-17.351-15.779    c-3.991-1.261-9.11-2.17-14.101-2.46c-5.76-0.341-12.271-0.25-16.67,1.569c-1.121,0.46-1.96,1.221-3.021,1.9    c-2.931,1.86-6.371,3.29-9.851,4.81c-9.021,3.931-18.84,7.45-29.43,9.74c-5.811,1.25-11.051,1.67-17.681,1.9    c-20.521,0.71-32.189-6.391-42.75-16c-1.411-1.29-3.18-2.91-4.811-5.04c-1.159-1.521-3.221-4.101-2.909-6.83    c0.309-2.72,3.979-4.03,6.149-3.8c5.119,0.54,8.44,5.71,11.641,8.17c3.909,3,8.509,5.35,12.648,7.16    c4.611,2.01,9.861,3.819,15.221,4.59c5.779,0.83,12.171-0.36,17.341-1.681C429.51,244.9,438.81,241.07,447.81,237z     M342.071,284.11c9.43,0.91,19.779,0.09,28.979,1.79c2.6,0.479,5.32,1.06,3.91,3.92c-3.601,0.08-7.521-0.38-11.629-0.67    c-7.75-0.561-15.87-0.891-23.61-1.8c-5.69-0.66-11.92-1.061-13.77-5.591c-1.142-2.8-0.23-8.409,2.46-8.619    c3.358-0.261,0.769,3.6,0.79,5.04C329.251,283.53,336.691,283.59,342.071,284.11z M294.509,148.48c4.401-0.79,9.67-0.771,14.771-1    c6.021-0.28,13.79-0.141,19.921,0.109c6.52,0.261,12.789,0.37,18.8,0.891c12.229,1.06,22.779,3.52,32.45,6.939    c14.63,5.181,26.06,13.061,36.14,22.94c1.59,1.55,3.28,3.26,4.819,5.04c1.43,1.66,3.68,3.57,3.24,6.149    c-1.43,0.12-2.59-0.93-3.581-1.68c-3.07-2.3-5.75-5.18-8.511-7.83c-3.688-3.55-7.85-6.649-12.079-9.74    c-4.28-3.109-8.7-5.96-13.649-8.17c-4.94-2.199-10.221-4.029-16-5.81c-16.531-5.1-37.701-6.47-59.431-5.6    c-3.551,0.14-7.21,0.22-10.739,0.22c-3.41,0-6.891,0.24-9.96-0.891C291.519,148.99,293.119,148.73,294.509,148.48z M290.48,165.72    c1.261-2.771,2.891-5.061,4.811-7.171c1.83-2,4.51-4.779,7.05-5.479c0.311-0.09,0.62-0.14,1.01,0.11    c0.312,1.699-0.949,3-1.79,4.14c-2.6,3.5-5.42,6.53-7.5,10.75c-2.04,4.13-3.399,8.43-4.479,13.87c-0.301,1.54-0.41,3.32-1.45,4.59    C287.34,179.06,287.76,171.66,290.48,165.72z M280.18,217.3c0.88-2.43,3.18-4.59,5.15-6.489c5.83-5.61,13.42-10.29,20.59-14.21    c9.109-4.971,17.839-9.19,30.439-10.29c10.14-0.9,22.42-0.601,32.449,0.67c8.051,1.02,15.681,2.39,22.83,4.81    c10.24,3.46,18.051,9.25,24.841,16.561c2.17,2.33,4.46,5.39,5.26,8.51c1.08,4.21-1.569,6.75-4.25,8.61    c-1.93,1.34-4.31,2.38-6.94,2.689c-5.719,0.67-12.339-0.81-17.229-1.79c-10.579-2.13-23.729-3.52-35.25-2.35    c-23.819,2.42-39.689,11.229-57.189,19.8c-5.69-3.38-11.13-6.91-15.891-11.3c-1.6-1.48-3.25-2.95-4.25-4.811    C279.37,225.14,279.16,220.16,280.18,217.3z M310.29,290.6c-1.54-3.69-8.13-4.641-12.65-5.48c-2.37-0.439-4.729-0.41-7.61-1.46    c-1.97-0.72-4.239-2.45-4.14-4.81c0.101-2.33,2.7-3.38,4.59-4.03c2.48-0.85,4.98-0.99,7.61-1.12    c10.17-0.479,20.22,2.63,23.16,10.3c1.109,2.88,1.12,6.851,1.12,11.3c0,5.881-0.29,10.48-2.571,13.65    c-1.68,2.34-5.64,5.12-8.96,6.83c-1.149,0.59-2.79,1.37-3.91,1.23c-1.489-0.19-2.33-1.66-2.91-2.57    c-0.949-1.479-1.949-3.61-1.229-6.16c0.87-3.1,3.42-4.069,5.26-6.49C309.81,299.47,312.019,294.77,310.29,290.6z M260.94,296.2    c4.261-1.33,8.28-1.69,12.86-1.91c3.58-0.17,7.55-0.06,11.08,0.23c6.42,0.52,10.33,1.3,9.85,8.5c-0.25,3.78-2.27,7.89-5.26,7.83    c-2.61-0.04-2.86-2.37-4.36-3.24c-1.659-0.96-5.02-1.39-7.84-1.57c-6.3-0.399-11.54,0.561-18.12-0.109    c-2.77-0.28-5.84-0.99-6.159-3.13C252.44,299.08,258.21,297.04,260.94,296.2z M235.87,222.9c1.43,0.439,3.819,1.439,3.92,3.02    c0.1,1.61-1.84,3.19-2.8,4.03c-1.24,1.07-2.681,2-4.03,2.8c-4.311,2.551-10.23,3.98-11.971,8.841    c-1.25,3.47-0.93,7.949-1.01,12.079c-0.09,4.33-0.33,8.261-1.569,11.53c-1.171,3.101-3.15,5.36-5.48,7.61    c-2.04,1.96-4.64,4.149-7.61,5.479c-1.14,0.511-2.529,0.59-3.689,1.12c-2.96,1.36-6.93,6.69-6.49,11.08    c0.32,3.271,2.57,6.38,4.36,8.84c3.689,5.07,7.7,9.58,12.979,13.431c2.51,1.819,6.92,4.46,11.08,3.47    c3.061-0.729,5.12-4.56,8.84-4.26c2.79,0.229,6.09,4.28,4.7,8.06c-2.09,5.67-9.87,7.84-16.67,8.28    c-7.81,0.51-11.78-1.94-15.89-5.71c-5.84-5.34-10.601-11.021-16.57-16.11c-1.81-1.55-4.34-4.01-6.93-3.92    c-2,0.08-2.8,2.5-4.931,2.47c-2.974-0.045-3.878-4.068-6.246-5.462c1.273,2.958-0.189,7.201-4.39,7.201    c-1.885,0-3.215-0.857-3.998-2.067c-0.451-0.29-0.834-0.65-1.145-1.063c-0.125,0.14-0.26,0.274-0.406,0.397    c-0.107,1.032-0.475,2.031-1.14,2.814c-0.443,2.128-2,3.892-4.645,3.585c-1.083-0.125-3.248-0.527-4.102-0.063    c-1.116,0.608-0.583,0.307-1.687,1.172c-1.631,1.278-3.346,2.316-5.541,1.712c-1.945-0.535-3.583-1.688-5.671-1.821    c-6.402-0.409-6.442-10.412,0-10c2.21,0.141,4.263,0.627,6.271,1.339c0.664-0.494,1.337-0.929,2.121-1.276    c0.276-0.122,0.553-0.226,0.831-0.328c0.318-3.185,3.633-5.846,6.558-4.583c0.134-0.149,0.295-0.275,0.45-0.406    c0.089-0.115,0.187-0.225,0.287-0.332c0.09-0.338,0.227-0.657,0.383-0.965c0.25-1.621,1.214-3.093,2.86-3.744    c-0.92-2.914,0.602-6.705,4.573-6.705c0.125,0,0.244,0.01,0.364,0.018c0.101-0.005,0.198-0.018,0.302-0.018    c1.045,0,1.921,0.263,2.627,0.703c2.187,0.893,3.125,3.273,2.815,5.447c1.112-1.141,2.202-2.27,3.268-3.245    c7.82-7.11,16.17-12.74,25.41-18.46c3.18-1.98,6.31-3.771,8.16-6.38c1.72-2.41,2.6-5.65,3.03-9.841    c0.43-4.229,1.18-10.08-0.561-12.87c-1.24-1.989-4.59-3.56-7.39-4.699c-8.48-3.46-18.94-5.25-29.431-6.49    c-10.51-1.25-22.22-1.87-32.449-3.59c-3.061-0.51-7.11-1.15-9.511-2.46c-1.869-1.011-4.67-3.431-4.699-6.261    c-0.04-2.96,3.09-5.649,4.699-7.17c4.16-3.949,8.811-6.909,15.44-8.159c10.91-2.061,26.61-1.061,37.37,0.55    c8.37,1.26,14.649,3.8,20.479,7.279c5.71,3.4,10.11,8.211,16.79,10.971c3.181,1.31,6.86,1.859,11.75,2.12    C231.8,221.99,233.98,222.32,235.87,222.9z M206.66,170.86c0.939,0.37,2.18,1.6,2.8,2.47c4.49,6.28,4.779,20.48,3.02,30.21    c-0.729-1.31-0.489-3-0.56-4.59c-0.36-7.93-1.44-15.33-4.7-21.04c-0.52-0.92-1.26-1.65-1.9-3.24    C204.91,173.64,203.56,169.64,206.66,170.86z M134.15,164.37c3.67-2.5,7.82-4.58,12.311-6.71c4.68-2.22,9.479-3.95,15.22-4.25    c5.55-0.3,10.92,0.25,16.11,0.67c10.3,0.83,20.109,1.83,30.1,3.47c2.36,0.381,4.3,0.57,7.05,1.341    c1.29,0.359,5.391,1.46,4.931,3.13c-0.511,1.819-0.472,6.058-1.712,5.758c-11.9-2.87-28.937-5.01-42.687-6    c-5.32-0.38-12.238-1.194-17.258-0.333c-4.44,0.77-6.03,2.647-9.74,4.667c-7.521,4.11-16.043,7.284-20.333,14.333    c-1.63,2.69-3.92,3.115-5.41,6.085c-0.38,0.78-0.739,2.04-1.899,2.13C119.91,175.95,126.26,169.75,134.15,164.37z M73.72,311.53    c-0.64,1.19-5.1-0.359-6.38-0.79c-9.26-3.13-19.74-7.56-25.85-13.99c-2.57-2.7-3.851-6.49-4.921-10.96    c-1.43-5.97-3.13-12.96-3.13-20.819c0-2.62-0.25-5.381,0.11-7.83c0.88-6.091,3.93-12.261,6.82-17.12    c0.92-1.54,2.13-3.71,3.359-4.59c0.771-0.551,1.84-0.66,2.69-1.12c4.229-2.311,7.92-5.78,11.52-8.84    c3.761-3.19,7.29-6.33,13.101-7.271c5.87-0.95,12.51-0.4,19.689-0.67c4.95-0.19,9.721-0.43,14.21-1.12    c1.92-0.29,3.391-0.649,5.49-0.79c2.3-0.14,5.9,0.28,5.7,2.58c-0.21,2.54-7.66,2.43-10.74,2.46c-4.47,0.05-8.56,0.11-13.09,0.11    c-7.86,0-18.69-1.24-24.17,1.569c-2.75,1.41-4.72,4.011-7.05,6.15c-2.261,2.08-4.79,4.07-7.391,5.82    c-2.88,1.939-5.67,3.21-7.83,5.37c-6.229,6.229-10.67,17.67-8.96,29.77c0.511,3.59,1.45,7.26,2.351,10.85    c0.92,3.641,1.779,7.101,3.14,10.08c2.851,6.24,8.43,8.61,14.66,11.751c4.41,2.22,8.7,4.09,13.43,6.369    C71.19,308.85,74.45,310.16,73.72,311.53z M59.96,283.89c2.31,2.13,4.39,4.17,6.38,6.71c0.56,0.729,1.58,1.64,1,2.8    c-1.79,0.51-3.5-0.641-4.92-1.57c-1.36-0.88-2.63-1.979-3.811-3.02c-3.319-2.92-7.26-6.561-7.72-12.2    c-0.26-3.23,0.08-6.48,0.34-9.62c0.49-5.87,1.29-11.76,2.57-17.229c0.76-3.23,1.62-6.87,3.47-8.73c1.7-1.71,5.141-3.29,7.721-4.37    c3.01-1.25,6.449-2.77,9.51-2.91c0.75-0.029,1.359-0.029,1.79,0.45c-0.33,1.47-1.79,2.37-2.9,3.13    c-4.37,2.97-11.1,4.61-14.22,8.96c-2.15,3.01-2.891,7.771-3.58,12.19c-0.71,4.64-1.67,9.069-1.68,13.99    C53.9,278.24,56.84,281.01,59.96,283.89z M68.46,263.3c-1.75-0.38-3.46-2.72-3.58-4.819c-0.061-0.99,0.03-1.54,0.56-2.91    c1.71-4.44,6.34-7.51,11.301-9.17c5.569-1.86,11.84-2.34,18.13-2.46c-0.021,0,0.04-0.11,0.109-0.12    c10.36-0.13,17.03,1.8,23.061,5.49c2.8,1.71,5.8,3.989,8.39,5.819c2.67,1.891,6.18,5.011,10.4,4.811    c3.18-0.16,5.79-1.99,8.84-3.36c4.359-1.95,12.32-4.47,12.54,2.58c0.14,4.71-4.021,7.851-7.05,9.62    c-5.29,3.08-12.851,4.08-21.15,4.36c-5.52,0.189-10.72-0.221-13.21-3.021c-1.73-1.939-2.28-4.7-3.69-6.939    c-1.35-2.15-2.83-4.091-5.149-5.37c-3.46-1.9-8.72-2.34-13.54-2.12c-5.16,0.229-9.11,0.92-13.09,2.68    c-1.86,0.83-3.65,2.11-5.82,3.14C73.78,262.32,70.98,263.83,68.46,263.3z M454.86,422.421c-5.05,4.04-11.439,7.26-17.121,10.408    c-6.89,3.83-13.89,7.32-20.699,10.74c-14.05,7.069-28.431,13.91-43.08,19.92c-14.7,6.03-30.49,11.29-47.11,15.891    c-8.29,2.299-16.97,3.949-25.63,5.819c-25.91,5.591-51.979,10.471-81.35,13.091c-9.7,0.869-19.74,1.369-29.771,1.68    c-10.18,0.32-20.41,0.45-30.55,0.899c-10.56,0.46-20.89,0.681-31.11,0.221c-5.04-0.229-9.66-0.75-13.87-1.899    c-3.93-1.08-7.569-2.841-10.97-4.7c-3.2-1.76-6.57-3.87-9.85-5.931c-3.23-2.04-6.53-4.04-9.51-6.159    c-3.04-2.16-6.221-4.55-7.051-8.729c-0.859-4.31-0.12-9.53,0.34-14.66c1.07,4.82,1.021,9.3,2.79,12.76    c1.71,3.341,4.54,5.671,7.61,7.83c5.99,4.221,12.771,8.141,19.25,11.75c3.44,1.92,6.86,3.771,10.63,4.931    c3.9,1.2,8.25,1.779,13.32,2.12c9.31,0.63,19.86,0.259,30.21-0.221c20.08-0.93,40.04-1.08,58.97-2.91    c19.08-1.84,36.771-4.62,53.83-8.06c17.39-3.491,34.26-7,51.14-10.851c16.78-3.83,31.891-9.521,46.221-15.67    c14.21-6.09,28.44-12.78,42.18-19.689c11.761-5.91,23.359-12.671,35.92-18.24c1.851-0.82,4.44-2.17,6.051-2.24    C457.28,420.44,455.4,421.99,454.86,422.421z M203.19,479.94c8.15-0.24,16.3-0.689,24.511-1.12    c16.439-0.859,32.729-1.319,48.229-2.91c7.76-0.79,15.021-1.94,21.82-3.8c6.62-1.811,12.899-4.141,19.25-6.38    c25.529-9.03,48.529-19.2,72.18-30.22c9.831-4.58,20.051-9.73,30.771-13.98c1.608-0.64,3.709-1.81,5.148-1.79    c1.271,0.011-0.29,1.12-0.79,1.45c-4.439,2.98-9.66,5.61-14.54,8.17c-28.729,15.061-58.43,28.12-90.869,39.5    c-12.871,4.521-26.11,8.561-41.851,10.3c-7.84,0.859-15.99,1.21-24.28,1.79c-16.109,1.13-32.97,1.76-49.689,2.46    c-25.16,1.06-52.721,1.32-71.061-6.271c-10.67-4.42-19.96-10.34-26.74-18.8c-0.96-1.189-2.189-2.511-2.239-4.25    c1.72-0.341,3.09,0.989,4.25,1.79c3.77,2.6,6.899,5.869,10.52,8.619c9.4,7.111,21.83,12.83,36.15,15.101    C168.69,481.94,187.37,480.41,203.19,479.94z M188.31,464.61c19.13-1,40.71-0.891,59.87,0c-9.36,0.949-19.7,0.67-29.99,0.67    C207.94,465.28,197.64,465.51,188.31,464.61z M512.159,288.36c-0.93,2.97-6.43,3.2-10.179,3.47c-4.64,0.34-9.45-0.15-12.65,1.01    c-3.29,1.19-5.049,4.351-6.149,7.501c-0.63,1.8-1.09,3.75-1.12,5.699c-0.03,1.96,1.189,3.69,0.78,5.71    c-0.421,2.04-1.83,2.98-3.25,4.48c-2.741,2.88-5.41,6.56-7.721,9.729c-3.259,4.5-6.41,9.36-9.399,13.881    c-6.221,9.43-13.021,18.34-19.8,26.63c-3.58,4.38-7,8.56-10.86,12.42c-11.541,11.55-24.7,21.6-38.27,31.33    c-9.11,6.54-18.45,12.54-28.87,17.569c-10.44,5.04-22.151,8.801-34.351,12.091c-12.17,3.28-25.13,5.949-38.72,7.72    c-20.38,2.649-42.979,3.689-66.03,3.689c-23.109,0-45.899-0.649-66.47-3.239c-13.72-1.729-27.229-4.12-38.49-7.95    c-11.819-4.01-20.489-10.03-26.859-19.58c-6.03-9.05-10.561-20.57-12.311-34.13c-0.87-6.78-1.109-14.181-1.45-21.82    c-0.34-7.38-0.47-15.18-0.109-22.61c0.71-14.92,1.24-28.72,4.47-41.96c0.73-3,1.67-6.12,3.021-8.62    c0.75-1.37,1.52-2.14,2.689-3.13c3.21-2.729,3.63-7.55,4.811-12.649c0.869-3.761,3.159-8.931,6.829-6.15    c3.29,2.49,3.801,9.98,4.471,14.55c1.38,9.34,3.399,17.511,8.62,23.16c2.58,2.79,5.67,5.3,8.62,7.28    c12.699,8.5,27.51,14.75,44.869,18.68c17.41,3.95,38.551,4.62,59.08,3.141c19.98-1.45,38.94-3.44,56.29-7.28    c17.41-3.85,33.99-8.44,50.36-13.2c16.21-4.71,32.3-9.76,48.45-15.109c23.6-7.811,46.36-16.86,67.26-28.091    c3.34-1.8,6.87-3.47,10.29-5.59c3.17-1.96,6.931-4.56,8.62-7.28c0.859-1.39,1.029-3.649,1.899-5.25    c0.77-1.43,2.02-3.12,4.029-3.25c2.421-0.149,4.171,3.17,4.921,4.7c0.819,1.66,1.599,4,2.239,6.38    c1.279,4.74,2.771,8.75,5.71,11.521c3.261,3.09,7.59,4.34,11.41,5.819c1.97,0.771,4.069,1.71,6.159,2.471    C507.47,282.99,513.38,284.46,512.159,288.36z"
         id="path3159"
         style="stroke:#ffffff;fill:#ffffff" /><path
         d="M528.159,257.36c4,8.149,6.71,18.97,4.141,32.01c-1.479,7.53-4.25,14.801-8.391,20.25c-1.319,1.75-3.08,4.101-5.479,4.03    c-2.33-0.06-3.739-1.899-4.141-3.24c-0.569-1.87-0.029-4.96,0.551-7.279c1.659-6.57,4.479-12.051,6.05-18.801    c2.37-10.24-2.279-18.27-6.489-24.95c-4.32-6.84-9.021-13.149-17.351-15.779c-3.99-1.261-9.109-2.17-14.101-2.46    c-5.76-0.341-12.271-0.25-16.67,1.569c-1.12,0.46-1.96,1.221-3.021,1.9c-2.931,1.86-6.37,3.29-9.851,4.81    c-9.021,3.931-18.84,7.45-29.43,9.74c-5.811,1.25-11.051,1.67-17.681,1.9c-20.521,0.71-32.189-6.391-42.75-16    c-1.41-1.29-3.181-2.91-4.811-5.04c-1.159-1.521-3.221-4.101-2.909-6.83c0.31-2.72,3.979-4.03,6.149-3.8    c5.119,0.54,8.439,5.71,11.64,8.17c3.91,3,8.511,5.35,12.649,7.16c4.61,2.01,9.86,3.819,15.221,4.59    c5.779,0.83,12.17-0.36,17.341-1.681c10.68-2.729,19.979-6.56,28.979-10.63c4.631-2.09,8.841-4.489,14.101-5.71    c5.351-1.24,11.149-1.689,17.91-2.01c-0.021,0,0.04-0.11,0.109-0.11c13.67-0.649,23.569,1.79,31.109,7.16    C518.44,241.59,523.96,248.81,528.159,257.36z"
         id="path3161" /><path
         d="M504.999,282.1c2.471,0.89,8.381,2.359,7.16,6.26c-0.93,2.97-6.43,3.2-10.18,3.47c-4.641,0.34-9.45-0.149-12.65,1.01    c-3.29,1.19-5.05,4.351-6.149,7.501c-0.63,1.8-1.09,3.75-1.12,5.699c-0.029,1.961,1.189,3.69,0.78,5.711    c-0.42,2.039-1.83,2.979-3.25,4.479c-2.74,2.88-5.41,6.56-7.721,9.73c-3.26,4.5-6.409,9.359-9.399,13.88    c-6.221,9.43-13.021,18.34-19.8,26.63c-3.58,4.38-7,8.56-10.86,12.42c-11.54,11.55-24.699,21.6-38.27,31.33    c-9.11,6.54-18.45,12.54-28.87,17.57c-10.439,5.04-22.15,8.8-34.351,12.09c-12.17,3.279-25.13,5.95-38.72,7.72    c-20.38,2.65-42.979,3.69-66.03,3.69c-23.109,0-45.899-0.65-66.47-3.24c-13.72-1.729-27.229-4.12-38.49-7.95    c-11.819-4.01-20.489-10.029-26.859-19.58c-6.03-9.05-10.561-20.57-12.311-34.13c-0.87-6.78-1.109-14.18-1.449-21.82    c-0.341-7.38-0.471-15.18-0.11-22.609c0.71-14.92,1.24-28.721,4.47-41.96c0.73-3.001,1.67-6.121,3.021-8.621    c0.75-1.369,1.52-2.14,2.689-3.13c3.21-2.729,3.63-7.55,4.811-12.649c0.87-3.76,3.16-8.931,6.83-6.15    c3.29,2.49,3.8,9.98,4.47,14.55c1.38,9.341,3.399,17.511,8.62,23.16c2.58,2.79,5.67,5.301,8.62,7.28    c12.699,8.5,27.51,14.75,44.87,18.68c17.409,3.95,38.55,4.62,59.079,3.141c19.98-1.45,38.94-3.44,56.29-7.28    c17.41-3.85,33.99-8.439,50.36-13.2c16.21-4.71,32.3-9.76,48.45-15.109c23.6-7.811,46.359-16.86,67.26-28.091    c3.34-1.8,6.87-3.47,10.29-5.59c3.17-1.96,6.931-4.56,8.62-7.28c0.859-1.39,1.029-3.649,1.899-5.25    c0.771-1.43,2.021-3.119,4.029-3.25c2.421-0.149,4.171,3.171,4.921,4.7c0.819,1.66,1.6,4,2.239,6.38    c1.28,4.74,2.771,8.75,5.71,11.521c3.261,3.09,7.59,4.34,11.41,5.819C500.81,280.4,502.909,281.34,504.999,282.1z M472.88,290.04    c1.14-3.88,3.14-12.55-3.131-11.3c-4.71,0.93-9.229,3.14-13.319,5.15c-8.34,4.1-16.271,7.96-24.62,12.42    c-3.859,2.06-8.609,4.71-10.63,7.94c-1.71,2.739-2.16,7.199-2.46,11.64c-0.31,4.55-0.51,9.39,0.891,12.87    c6.67-2,12.34-5.141,18.359-7.95c5.8-2.71,11.7-5.63,17.34-8.95c5.479-3.229,10.49-6.62,13.771-12.53    C470.539,296.68,471.829,293.61,472.88,290.04z M451.84,332.45c0.529-0.84,1.311-1.729,1.229-2.8c-0.03,0-0.07,0-0.109,0    c-5.49,1.67-10.83,4.33-16.78,7.05c-5.101,2.34-11.37,5.11-14.771,8.62c-1.999,2.061-3.239,5.22-3.919,8.84    c-0.671,3.58-1.271,7.78-0.11,11.53c0.57,1.85,2.521,4.46,4.92,4.14c1.46-0.199,3.58-2.93,4.7-4.14    c1.55-1.689,2.909-3.31,4.14-4.81C438.59,351.76,445.63,342.421,451.84,332.45z M406.19,385.16c1.739-1.439,4.771-3.52,4.699-6.04    c-0.069-2.199-2.1-3.5-2.909-4.819c-1.939-3.13-3.2-7.17-3.471-12.19c-0.13-2.33,0.49-5.74-1.01-6.83    c-0.62-0.45-1.95-0.3-2.46-0.22c-0.07,0.01-0.15-0.021-0.23,0c-4.76,0.99-8.43,3.18-12.529,5.03    c-4.181,1.89-8.351,3.72-12.311,5.37c-6.25,2.619-12.46,5.34-19.359,7.05c-2.551,0.64-4.931,1.29-6.489,2.35    c-1.812,1.25-3.562,3.11-3.69,6.61c-0.13,3.34,1.03,6.87,1.9,9.84c1.77,6.03,4.239,11.59,6.938,16.68    c1.171,2.19,2.892,6.07,5.48,6.38c2.609,0.301,5.5-2.09,7.39-3.25c6.931-4.26,12.95-8.29,19.36-12.64    C393.75,394.22,400.24,390.051,406.19,385.16z M407.31,315.33c0.521-3.21-0.5-6.909-2.47-6.939c-1.479-0.021-3.38,0.59-4.92,1.01    c-10.71,2.92-20.229,6.32-30.771,9.51c-8.609,2.61-18.141,4.891-26.641,7.95c-2.6,0.93-6.29,2.521-6.93,4.58    c-0.591,1.9,0.27,4.53,0.67,6.38c0.899,4.19,1.739,8.3,2.91,12.2c0.43,1.44,1.21,4.7,2.569,5.04    c0.939,0.229,3.869-1.13,5.369-1.68c1.91-0.71,3.7-1.41,5.261-2.021c9.801-3.77,18.899-8.31,29.771-10.52    c1.03-0.21,2.149-0.2,3.24-0.44c2.489-0.57,5.369-2.95,7.39-4.7c4.19-3.64,7.811-7.81,10.851-12.42    C405.21,320.86,406.81,318.33,407.31,315.33z M344.75,419.74c0.479-1.76-0.32-3.96-0.78-5.26c-2.87-8.09-7.76-13.13-9.29-22.38    c-0.21-1.25-0.449-3.19-0.449-5.82c0-4.04-0.25-6.03-3.351-5.71c-2.67,0.28-4.729,1.25-6.939,2.01    c-11.061,3.841-21.351,7.521-33.351,10.641c-4.17,1.08-10.15,1.75-12.76,4.81c-1.75,2.061-2.07,6.44-2.011,10.29    c0.051,3.38,0.16,6.5,0.33,10.07c0.28,5.78-0.08,15.07,3.7,17.24c2.1,1.199,6.1,0.689,9.061,0.33    c9.46-1.141,17.869-3.011,25.96-4.921c8.09-1.909,16.34-4.17,23.84-7.05C340.9,423.15,344.16,421.94,344.75,419.74z     M327.29,357.07c0.33-1.63-0.67-4.16-1.12-5.93c-0.55-2.21-1.07-4.24-1.45-5.93c-0.96-4.25-1.47-7.971-4.25-10.521    c-2.39,0.271-4.989,0.86-7.609,1.34c-2.351,0.431-4.75,0.931-6.939,1.351c-9.46,1.8-18.42,3.33-27.53,5.59    c-4.21,1.05-9.41,2.2-11.64,4.92c-1.78,2.18-1.9,5.899-2.23,10.08c-0.27,3.25-1.02,7.79,0.44,9.96    c1.06,1.56,4.46,1.77,7.729,1.899c9.58,0.381,18.91-1.47,26.07-2.8c8.101-1.5,16.09-3.13,23.05-5.819    C324.05,360.35,326.87,359.171,327.29,357.07z M264.52,430.03c0.5-7.069-0.03-14.14-0.67-21.149c-0.3-3.21-0.75-7.83-2.58-8.5    c-0.63-0.23-1.56,0-1.569,0c-1.74,0.26-3.25,0.89-4.921,1.229c-8.42,1.71-17.46,2.32-26.859,3.13    c-3.521,0.311-7.92,0.681-9.17,2.8c-1.03,1.75-0.48,6.29-0.11,8.391c0.9,5.25,1.94,9.72,3.021,14.89    c0.51,2.431,0.779,5.199,2.119,6.819c1.851,2.229,5.98,2.29,9.96,2.46c7.141,0.32,13.391-0.04,19.471-0.439    c2.62-0.18,6.68-0.05,8.729-1.239C263.97,437.26,264.27,433.52,264.52,430.03z M250.75,367.48c1.64-1.82,1.46-5.88,1.46-9.51    c0-3.69,0.14-8.061-1.46-9.63c-1.21-1.2-3.82-1.37-6.71-1.23c-10,0.47-19.551,2.26-29.101,3.47c-1,2.561-1.58,5.141-2.229,8.171    c-0.51,2.359-1.931,6.699-0.681,8.84c1.08,1.84,5.49,2.01,8.62,2.13c3.37,0.12,7.141,0.109,10.74,0.109    C237.41,369.83,248.01,370.53,250.75,367.48z M208.68,438.98c1.45-1.65,0.47-5.591,0.11-7.83c-0.96-5.87-1.88-9.939-3.36-14.771    c-0.69-2.261-1.22-5.061-2.8-6.381c-2.42-2.02-10.08-1.75-13.87-1.569c-3.53,0.17-12.17,0.05-13.09,2.689    c-0.82,2.33,1.109,5.67,2.01,7.721c2.16,4.93,4.07,8.97,6.71,13.319c1.26,2.061,2.65,4.62,4.37,5.71    c2.27,1.42,6.08,1.75,9.62,2.011C201.32,440.1,207.11,440.76,208.68,438.98z M199.95,361.44c0.279-2.52,0.789-6.3-0.11-8.06    c-1.18-2.29-4.13-2.931-7.39-3.58c-6.631-1.33-12.15-1.99-18.58-2.8c-3.21-0.41-6.91-1.011-10.07-0.671    c-4.84,0.521-5.38,4.101-6.71,8.5c-0.4,1.33-0.96,2.87-1.34,4.37c-0.4,1.551-0.9,3.721-0.34,5.03c0.97,2.28,6.26,2.79,8.949,3.25    c7.73,1.3,14.16,1.61,22.61,2.01c3.85,0.181,9.13,0.24,10.96-1.34C199.35,366.921,199.64,364.16,199.95,361.44z M169.29,435.74    c0.439-1.04-0.34-2.71-0.79-3.92c-2.36-6.41-3.78-12.53-6.601-18.24c-0.949-1.909-2.58-5.189-4.25-5.699    c-1.17-0.37-2.66-0.23-3.92-0.45c-1.22-0.221-2.49-0.41-3.689-0.67c-2.16-0.49-5.41-2.051-7.16-1.57    c-1.33,0.36-0.79,1.73-0.23,3.13c2.25,5.57,4.771,9.21,6.94,14.89c0.79,2.07,1.97,4.9,1.899,6.931    c-0.02,0.859-0.579,1.42-0.439,2.13c0.189,1,2.42,1.95,3.58,2.351c1.62,0.561,3.189,0.82,4.81,1.12    C161.39,436.1,168.38,437.89,169.29,435.74z M144.56,349.801c0.43-1.69,1.32-3.86,1.11-5.601c-0.41-3.52-5.21-5.569-7.94-6.939    c-1.64-0.82-3.1-1.41-4.7-2.12c-1.619-0.73-3.26-1.601-5.26-1.68c-1.83-0.07-3.06,3.79-3.47,5.93c-1.31,6.92-0.07,17.07,2.8,21.6    c2.79,4.4,8.33,4.03,14.101,5.48c1.869-2.96,1.42-7.07,2.13-11.19C143.63,353.501,144.08,351.62,144.56,349.801z M137.84,430.591    c0.14-1.551-0.66-2.979-1.23-4.359c-2.76-6.65-6.04-13.48-9.85-19.25c-1.4-2.12-3.36-5.3-5.48-6.27    c-2.8-1.28-3.25,0.54-2.569,3.25c0.939,3.779,2.41,6.89,2.68,10.96c0.2,2.89-0.22,4.619-1.899,5.38    c-1.33,0.59-4.75-0.24-6.601,1.12c0.44,2.119,2.74,3.21,4.59,4.14c4.09,2.051,8.55,3.04,13.2,4.25    C133,430.41,135.54,431.501,137.84,430.591z M112.78,330.211c0-2.49,0.11-8.75-1.909-8.28c-0.15,0.04-0.24,0.03-0.33,0.109    c-3.83,3.771-6.5,12.98-8.4,19.141c-0.68,2.22-1.729,4.979-1.56,7.72c0.16,2.62,1.83,3.72,3.58,5.04    c1.09,0.811,2.779,2.63,4.479,2.24c1.53-0.37,2.23-4.891,2.57-7.391C112.09,342.32,112.78,337.32,112.78,330.211z M106.96,418.73    c1.24-0.15,0.99-2.82,0.78-3.92c-0.87-4.46-2.551-7.97-4.25-11.41c-2.381-4.81-4.74-9.22-7.841-12.979c-0.069,0-0.149,0-0.22,0    c-0.01-0.07-0.02-0.131-0.11-0.11c0,0.15-0.05,0.24-0.109,0.33c0.39,2.74,1.279,5.34,2.229,7.72c2.33,5.8,4.91,11.73,7.391,17.46    C105.26,416.81,105.99,418.841,106.96,418.73z M99.35,312.2c0.3-0.949,0.86-2.42,0-3.25c-2.25,0.771-5.68,7.42-4.93,10.41    c1.81-0.5,2.87-2.62,3.7-4.359C98.49,314.211,99.03,313.18,99.35,312.2z"
         id="path3163" /><path
         fill="#FFFFFF"
         d="M469.749,278.74c6.271-1.25,4.271,7.42,3.131,11.3c-1.051,3.57-2.341,6.641-3.801,9.29    c-3.279,5.91-8.29,9.301-13.771,12.53c-5.64,3.32-11.54,6.24-17.34,8.95c-6.021,2.81-11.689,5.95-18.359,7.95    c-1.399-3.48-1.199-8.32-0.891-12.87c0.3-4.44,0.75-8.9,2.46-11.64c2.021-3.23,6.771-5.881,10.63-7.94    c8.351-4.46,16.28-8.32,24.62-12.42C460.52,281.88,465.039,279.67,469.749,278.74z"
         id="path3165" /><path
         fill="#FFFFFF"
         d="M453.07,329.65c0.08,1.07-0.7,1.96-1.229,2.8c-6.21,9.971-13.25,19.311-20.7,28.431    c-1.229,1.5-2.59,3.119-4.141,4.81c-1.119,1.21-3.239,3.94-4.699,4.14c-2.399,0.32-4.351-2.29-4.92-4.14    c-1.16-3.75-0.561-7.95,0.109-11.53c0.681-3.62,1.921-6.779,3.92-8.84c3.399-3.51,9.67-6.28,14.771-8.62    c5.95-2.72,11.29-5.38,16.779-7.05C452.999,329.65,453.039,329.65,453.07,329.65z"
         id="path3167" /><path
         d="M421.74,216.86c1.08,4.21-1.569,6.75-4.25,8.61c-1.931,1.34-4.311,2.38-6.939,2.689c-5.72,0.67-12.34-0.81-17.229-1.79    c-10.579-2.13-23.729-3.52-35.25-2.35c-23.819,2.42-39.689,11.229-57.189,19.8c-5.69-3.38-11.13-6.91-15.891-11.3    c-1.6-1.48-3.25-2.95-4.25-4.811c-1.369-2.569-1.579-7.55-0.56-10.41c0.88-2.43,3.18-4.59,5.15-6.489    c5.83-5.61,13.42-10.29,20.59-14.21c9.109-4.971,17.84-9.19,30.439-10.29c10.141-0.9,22.42-0.601,32.449,0.67    c8.051,1.02,15.681,2.39,22.83,4.81c10.24,3.46,18.051,9.25,24.841,16.561C418.65,210.68,420.94,213.74,421.74,216.86z     M393.88,212.83c3.92,2.23,8.649,3.17,13.311,4.25c-2.149-4.6-7.011-8.979-13.649-8.28c-1.23,0.131-2.58,0.221-2.681,1.23    C390.72,211.33,392.84,212.24,393.88,212.83z M342.18,213.05c0.431-1.02-0.13-2.449-0.449-3.47c-0.711-2.26-1.301-4.16-1.569-6.71    c-0.142-1.39,0.02-2.97-0.562-3.58c-0.569-0.62-1.96-0.529-2.79-0.45c-2.31,0.21-4.67,0.82-6.829,1.45    c-12.601,3.721-23.381,9.15-31.891,17.13c-1.391,1.301-3.13,3.061-2.91,5.25c0.22,2.29,2.87,4.431,5.26,4.7    c1.971,0.23,4.079-0.479,5.819-1.109c5.229-1.91,10.05-4.271,14.54-6.49c4.391-2.181,9.38-4.67,15.891-5.15    C338.77,214.46,341.58,214.46,342.18,213.05z"
         id="path3169" /><path
         fill="#FFFFFF"
         d="M410.89,379.12c0.07,2.521-2.96,4.601-4.699,6.04c-5.949,4.891-12.439,9.061-18.689,13.32    c-6.41,4.35-12.431,8.38-19.36,12.64c-1.89,1.16-4.779,3.551-7.39,3.25c-2.59-0.31-4.311-4.189-5.48-6.38    c-2.699-5.09-5.17-10.649-6.938-16.68c-0.87-2.97-2.03-6.5-1.9-9.84c0.13-3.5,1.88-5.36,3.69-6.61    c1.56-1.06,3.938-1.71,6.489-2.35c6.899-1.71,13.109-4.431,19.359-7.05c3.96-1.65,8.13-3.48,12.311-5.37    c4.101-1.851,7.771-4.04,12.529-5.03c0.08-0.02,0.16,0.01,0.23,0c0.51-0.08,1.84-0.23,2.46,0.22c1.5,1.09,0.88,4.5,1.01,6.83    c0.271,5.021,1.53,9.061,3.471,12.19C408.79,375.62,410.82,376.921,410.89,379.12z"
         id="path3171" /><path
         fill="#FFFFFF"
         d="M404.84,308.39c1.97,0.03,2.99,3.729,2.47,6.939c-0.5,3-2.1,5.53-3.699,7.95    c-3.04,4.61-6.659,8.78-10.851,12.42c-2.021,1.75-4.899,4.13-7.39,4.7c-1.091,0.24-2.21,0.23-3.24,0.44    c-10.87,2.21-19.97,6.75-29.771,10.52c-1.561,0.61-3.351,1.311-5.261,2.021c-1.5,0.55-4.43,1.909-5.369,1.68    c-1.359-0.34-2.141-3.6-2.569-5.04c-1.171-3.9-2.011-8.01-2.91-12.2c-0.4-1.85-1.261-4.479-0.67-6.38    c0.64-2.06,4.33-3.65,6.93-4.58c8.5-3.06,18.03-5.34,26.641-7.95c10.54-3.189,20.061-6.59,30.771-9.51    C401.46,308.98,403.36,308.37,404.84,308.39z"
         id="path3173" /><path
         fill="#FFFFFF"
         d="M407.19,217.08c-4.66-1.08-9.391-2.02-13.311-4.25c-1.04-0.59-3.16-1.5-3.021-2.8    c0.101-1.01,1.449-1.1,2.681-1.23C400.18,208.1,405.04,212.48,407.19,217.08z"
         id="path3175" /><path
         fill="#FFFFFF"
         d="M343.97,414.48c0.46,1.3,1.261,3.5,0.78,5.26c-0.59,2.2-3.851,3.41-6.04,4.25    c-7.5,2.88-15.75,5.141-23.84,7.05c-8.091,1.91-16.5,3.78-25.96,4.921c-2.96,0.359-6.96,0.869-9.061-0.33    c-3.78-2.17-3.42-11.46-3.7-17.24c-0.17-3.57-0.279-6.69-0.33-10.07c-0.06-3.85,0.261-8.229,2.011-10.29    c2.609-3.06,8.59-3.729,12.76-4.81c12-3.12,22.29-6.8,33.351-10.641c2.21-0.76,4.271-1.729,6.939-2.01    c3.101-0.319,3.351,1.67,3.351,5.71c0,2.63,0.239,4.57,0.449,5.82C336.21,401.35,341.1,406.39,343.97,414.48z"
         id="path3177" /><path
         fill="#FFFFFF"
         d="M341.73,209.58c0.319,1.021,0.88,2.45,0.449,3.47c-0.6,1.41-3.41,1.41-5.489,1.57    c-6.511,0.48-11.5,2.97-15.891,5.15c-4.49,2.22-9.311,4.58-14.54,6.49c-1.74,0.63-3.85,1.34-5.819,1.109    c-2.391-0.27-5.041-2.41-5.26-4.7c-0.22-2.189,1.521-3.949,2.91-5.25c8.51-7.979,19.29-13.409,31.891-17.13    c2.159-0.63,4.521-1.24,6.829-1.45c0.83-0.079,2.221-0.17,2.79,0.45c0.58,0.61,0.42,2.19,0.562,3.58    C340.43,205.42,341.02,207.32,341.73,209.58z"
         id="path3179" /><path
         fill="#FFFFFF"
         d="M326.17,351.14c0.45,1.77,1.45,4.3,1.12,5.93c-0.42,2.101-3.24,3.28-5.48,4.141    c-6.96,2.689-14.949,4.319-23.05,5.819c-7.16,1.33-16.49,3.181-26.07,2.8c-3.27-0.13-6.67-0.34-7.729-1.899    c-1.46-2.17-0.71-6.71-0.44-9.96c0.33-4.181,0.45-7.9,2.23-10.08c2.229-2.72,7.43-3.87,11.64-4.92    c9.11-2.26,18.07-3.79,27.53-5.59c2.189-0.42,4.59-0.92,6.939-1.351c2.62-0.479,5.221-1.069,7.609-1.34    c2.78,2.55,3.29,6.271,4.25,10.521C325.1,346.9,325.62,348.93,326.17,351.14z"
         id="path3181" /><path
         fill="#FFFFFF"
         d="M17.88,96c103.1,0,206.189,0,309.3,0c-38.41,0.84-77.2,0.42-113.02,4.03    c-17.551,1.77-34.9,4.38-51.36,7.16c-16.72,2.82-32.3,6.59-46.11,12.42c-13.62,5.75-26.06,13.28-36.93,21.6    c-5.57,4.261-10.81,8.98-14.88,14.431c-2.2,2.949-4.14,5.87-5.15,9.52c-1.04,3.771-0.66,8.44-1.34,13.2    c-1.24,8.75-3.58,15.64-8.17,21.15c-2.2,2.64-4.7,5.05-7.5,7.159c-2.72,2.061-5.61,3.88-8.16,6.38    C24.69,222.71,17.24,234.52,17.99,254.9c0.02,0.13-0.021,0.2-0.11,0.229C17.88,202.09,17.88,149.04,17.88,96z"
         id="path3183" /><path
         d="M321.25,284c1.109,2.88,1.12,6.851,1.12,11.3c0,5.881-0.29,10.48-2.57,13.65c-1.68,2.34-5.64,5.12-8.96,6.83    c-1.149,0.59-2.79,1.37-3.91,1.23c-1.489-0.19-2.33-1.66-2.91-2.57c-0.949-1.48-1.949-3.61-1.229-6.16    c0.87-3.1,3.42-4.07,5.26-6.49c1.76-2.319,3.97-7.02,2.24-11.189c-1.54-3.69-8.13-4.641-12.65-5.48    c-2.37-0.439-4.729-0.41-7.61-1.46c-1.97-0.72-4.239-2.45-4.14-4.81c0.101-2.33,2.7-3.38,4.59-4.03c2.48-0.85,4.98-0.99,7.61-1.12    C308.26,273.22,318.31,276.33,321.25,284z"
         id="path3185" /><path
         d="M284.88,294.52c6.42,0.52,10.33,1.3,9.85,8.5c-0.25,3.78-2.27,7.89-5.26,7.83c-2.61-0.04-2.86-2.37-4.36-3.24    c-1.659-0.96-5.02-1.39-7.84-1.57c-6.3-0.399-11.54,0.561-18.12-0.109c-2.77-0.28-5.84-0.99-6.159-3.13    c-0.551-3.721,5.22-5.761,7.949-6.601c4.261-1.33,8.28-1.69,12.86-1.91C277.38,294.12,281.35,294.23,284.88,294.52z"
         id="path3187" /><path
         fill="#FFFFFF"
         d="M263.85,408.881c0.641,7.01,1.17,14.08,0.67,21.149c-0.25,3.489-0.55,7.229-2.58,8.391    c-2.05,1.189-6.109,1.061-8.729,1.239c-6.08,0.399-12.33,0.761-19.47,0.439c-3.98-0.17-8.11-0.229-9.961-2.46    c-1.34-1.62-1.609-4.391-2.119-6.819c-1.08-5.17-2.12-9.64-3.021-14.89c-0.37-2.101-0.92-6.641,0.11-8.391    c1.25-2.119,5.649-2.489,9.17-2.8c9.399-0.81,18.439-1.42,26.859-3.13c1.671-0.34,3.181-0.97,4.921-1.229    c0.01,0,0.939-0.23,1.569,0C263.1,401.051,263.55,405.671,263.85,408.881z"
         id="path3189" /><path
         fill="#FFFFFF"
         d="M252.21,357.97c0,3.63,0.18,7.689-1.46,9.51c-2.74,3.05-13.34,2.35-19.36,2.35    c-3.6,0-7.37,0.011-10.74-0.109c-3.13-0.12-7.54-0.29-8.62-2.13c-1.25-2.141,0.171-6.48,0.681-8.84    c0.649-3.03,1.229-5.61,2.229-8.171c9.55-1.21,19.101-3,29.101-3.47c2.89-0.14,5.5,0.03,6.71,1.23    C252.35,349.91,252.21,354.28,252.21,357.97z"
         id="path3191" /><path
         d="M201.63,279.41c1.16-0.53,2.55-0.61,3.689-1.12c2.971-1.33,5.57-3.52,7.61-5.479c2.33-2.25,4.31-4.511,5.48-7.61    c1.239-3.27,1.479-7.2,1.569-11.53c0.08-4.13-0.24-8.609,1.01-12.08c1.74-4.859,7.66-6.29,11.971-8.84    c1.35-0.8,2.79-1.729,4.029-2.8c0.961-0.84,2.9-2.42,2.801-4.03c-0.101-1.58-2.49-2.58-3.92-3.02    c-1.891-0.58-4.07-0.91-5.931-1.01c-4.89-0.261-8.569-0.811-11.75-2.12c-6.68-2.761-11.08-7.57-16.79-10.971    c-5.83-3.479-12.109-6.02-20.479-7.279c-10.76-1.61-26.46-2.61-37.37-0.55c-6.63,1.25-11.28,4.21-15.44,8.159    c-1.609,1.521-4.739,4.21-4.699,7.17c0.029,2.83,2.83,5.25,4.699,6.261c2.4,1.31,6.45,1.949,9.511,2.46    c10.229,1.72,21.939,2.34,32.449,3.59c10.49,1.24,20.95,3.03,29.431,6.49c2.8,1.14,6.149,2.71,7.39,4.699    c1.74,2.79,0.99,8.641,0.561,12.87c-0.431,4.19-1.311,7.431-3.03,9.84c-1.851,2.61-4.98,4.4-8.16,6.381    c-9.24,5.72-17.59,11.35-25.41,18.46c-1.066,0.975-2.156,2.104-3.268,3.245c-0.104,0.728-0.349,1.429-0.732,2.045    c0.092,0.461,0.133,0.935,0.111,1.407c0.033,0.476-0.009,0.953-0.095,1.421c0.329,0.412,0.567,0.885,0.75,1.38    c0.19,0.2,0.353,0.42,0.503,0.649c0.802,0.506,1.385,1.24,1.746,2.08c2.368,1.395,3.272,5.417,6.246,5.462    c2.13,0.03,2.931-2.39,4.931-2.47c2.59-0.09,5.12,2.37,6.93,3.92c5.97,5.09,10.73,10.771,16.57,16.11    c4.109,3.77,8.08,6.22,15.89,5.71c6.8-0.44,14.58-2.61,16.67-8.28c1.39-3.78-1.91-7.83-4.7-8.06c-3.72-0.3-5.779,3.529-8.84,4.26    c-4.16,0.99-8.57-1.65-11.08-3.47c-5.279-3.851-9.29-8.36-12.979-13.431c-1.79-2.46-4.04-5.57-4.36-8.84    C194.7,286.1,198.67,280.77,201.63,279.41z M167.14,221.445c-0.315,0-0.61-0.03-0.895-0.076c-0.029-0.005-0.059-0.008-0.087-0.014    c-0.287-0.051-0.558-0.124-0.813-0.216c-0.785,0.696-1.852,1.139-3.205,1.139c-0.117,0-0.227-0.01-0.339-0.017    c-0.109,0.006-0.214,0.017-0.327,0.017c-0.058,0-0.111-0.007-0.168-0.008c-0.055,0.002-0.108,0.008-0.165,0.008    c-0.19,0-0.375-0.01-0.554-0.027c-0.096,0.005-0.18,0.027-0.279,0.027c-0.443,0-0.846-0.06-1.228-0.149    c-0.393,0.094-0.814,0.149-1.272,0.149c-0.554,0-1.056-0.079-1.515-0.213c-0.151,0.017-0.3,0.042-0.455,0.043    c-0.417,0.108-0.871,0.17-1.364,0.17c-0.869,0-1.616-0.186-2.251-0.5h-0.083c-0.759,0-1.475-0.19-2.124-0.504    c-0.015,0-0.028,0.004-0.042,0.004h-0.167c-0.025,0-0.048-0.007-0.073-0.007c-0.033,0-0.061,0.007-0.094,0.007    c-2.787,0-4.351-1.862-4.722-3.976c-0.005-0.025-0.008-0.05-0.013-0.074c-0.036-0.224-0.061-0.449-0.07-0.676    c-0.005-0.092-0.028-0.181-0.028-0.274c0-0.119,0.027-0.23,0.036-0.347c0.008-0.116,0.021-0.23,0.036-0.346    c0.019-0.125,0.026-0.251,0.053-0.374c0.079-0.404,0.201-0.799,0.368-1.172c0.402-1.118,1.175-2.085,2.32-2.628    c0.747-0.657,1.745-1.086,3.003-1.125c0.305-0.078,0.626-0.136,0.971-0.158c0.608-0.262,1.262-0.408,1.88-0.352    c0.141,0.013,0.261,0.024,0.375,0.036c0.569-0.233,1.22-0.369,1.958-0.369c0.631,0,1.198,0.099,1.706,0.271    c0.478-0.157,0.997-0.262,1.584-0.268c0.768-0.617,1.78-1.004,3.043-1.004c1.309,0,2.348,0.417,3.125,1.073    c0.278-0.044,0.567-0.073,0.875-0.073c1.784,0,3.072,0.767,3.869,1.875c0.053,0.038,0.106,0.075,0.157,0.115    c0.055,0.044,0.108,0.09,0.161,0.136c0.07,0.061,0.138,0.124,0.203,0.188c0.048,0.048,0.095,0.098,0.141,0.148    c0.063,0.069,0.125,0.14,0.183,0.213c0.042,0.051,0.082,0.103,0.121,0.156c0.057,0.078,0.111,0.157,0.164,0.238    c0.034,0.053,0.068,0.105,0.1,0.159c0.051,0.086,0.099,0.175,0.145,0.264c0.027,0.052,0.054,0.104,0.079,0.157    c0.045,0.096,0.085,0.194,0.124,0.292c0.02,0.05,0.041,0.099,0.06,0.15c0.039,0.107,0.072,0.217,0.104,0.327    c0.012,0.044,0.027,0.087,0.039,0.131c0.034,0.127,0.061,0.256,0.085,0.385c0.005,0.028,0.012,0.056,0.017,0.084    c0.084,0.488,0.105,0.988,0.063,1.482C172.183,218.601,170.579,221.445,167.14,221.445z"
         id="path3193" /><path
         fill="#FFFFFF"
         d="M208.79,431.15c0.359,2.239,1.34,6.18-0.11,7.83c-1.57,1.779-7.36,1.119-10.3,0.899    c-3.54-0.261-7.351-0.591-9.62-2.011c-1.72-1.09-3.11-3.649-4.37-5.71c-2.64-4.351-4.55-8.391-6.71-13.319    c-0.9-2.051-2.83-5.391-2.01-7.721c0.92-2.64,9.56-2.52,13.09-2.689c3.79-0.181,11.45-0.45,13.87,1.569    c1.58,1.32,2.109,4.12,2.8,6.381C206.91,421.211,207.83,425.28,208.79,431.15z"
         id="path3195" /><path
         fill="#FFFFFF"
         d="M199.84,353.381c0.899,1.76,0.39,5.54,0.11,8.06c-0.311,2.72-0.601,5.48-2.021,6.71    c-1.83,1.58-7.11,1.521-10.96,1.34c-8.45-0.399-14.88-0.71-22.61-2.01c-2.689-0.46-7.979-0.97-8.949-3.25    c-0.561-1.31-0.061-3.48,0.34-5.03c0.38-1.5,0.939-3.04,1.34-4.37c1.33-4.399,1.87-7.979,6.71-8.5    c3.16-0.34,6.86,0.261,10.07,0.671c6.43,0.81,11.949,1.47,18.58,2.8C195.71,350.45,198.66,351.091,199.84,353.381z"
         id="path3197" /><path
         fill="#FFFFFF"
         d="M168.5,431.82c0.45,1.21,1.229,2.88,0.79,3.92c-0.91,2.149-7.9,0.359-9.851,0    c-1.62-0.3-3.189-0.561-4.81-1.12c-1.16-0.399-3.391-1.351-3.58-2.351c-0.14-0.71,0.42-1.271,0.439-2.13    c0.07-2.029-1.109-4.859-1.899-6.93c-2.17-5.681-4.69-9.32-6.94-14.891c-0.56-1.399-1.1-2.77,0.23-3.13    c1.75-0.479,5,1.08,7.16,1.57c1.199,0.26,2.47,0.45,3.689,0.67c1.26,0.22,2.75,0.08,3.92,0.45c1.67,0.51,3.301,3.79,4.25,5.699    C164.72,419.29,166.14,425.41,168.5,431.82z"
         id="path3199" /><path
         d="M158.21,259.16c0.14,4.71-4.021,7.851-7.05,9.62c-5.29,3.08-12.851,4.08-21.15,4.36c-5.52,0.189-10.72-0.221-13.21-3.021    c-1.73-1.939-2.28-4.7-3.69-6.939c-1.35-2.15-2.83-4.091-5.149-5.37c-3.46-1.9-8.72-2.34-13.54-2.12    c-5.16,0.229-9.11,0.92-13.09,2.68c-1.86,0.83-3.65,2.11-5.82,3.141c-1.73,0.81-4.53,2.319-7.05,1.789    c-1.75-0.38-3.46-2.72-3.58-4.819c-0.061-0.99,0.03-1.54,0.56-2.91c1.71-4.44,6.34-7.51,11.301-9.17    c5.569-1.86,11.84-2.34,18.13-2.46c-0.021,0,0.04-0.11,0.109-0.12c10.36-0.13,17.03,1.8,23.061,5.49    c2.8,1.71,5.8,3.989,8.39,5.819c2.67,1.891,6.18,5.011,10.4,4.811c3.18-0.16,5.79-1.99,8.84-3.36    C150.03,254.63,157.99,252.11,158.21,259.16z"
         id="path3201" /><path
         fill="#FFFFFF"
         d="M145.67,344.2c0.21,1.74-0.68,3.91-1.11,5.601c-0.479,1.819-0.93,3.7-1.229,5.479    c-0.71,4.12-0.261,8.23-2.13,11.19c-5.771-1.45-11.311-1.08-14.101-5.48c-2.87-4.529-4.109-14.68-2.8-21.6    c0.41-2.14,1.64-6,3.47-5.93c2,0.079,3.641,0.949,5.26,1.68c1.601,0.71,3.061,1.3,4.7,2.12    C140.46,338.631,145.26,340.68,145.67,344.2z"
         id="path3203" /><path
         fill="#FFFFFF"
         d="M136.61,426.23c0.57,1.38,1.37,2.81,1.23,4.359c-2.3,0.909-4.84-0.181-7.16-0.78    c-4.65-1.21-9.11-2.199-13.2-4.25c-1.85-0.93-4.149-2.021-4.59-4.14c1.851-1.36,5.271-0.53,6.601-1.12    c1.68-0.761,2.1-2.49,1.899-5.38c-0.27-4.07-1.74-7.181-2.68-10.96c-0.681-2.711-0.23-4.53,2.569-3.25    c2.12,0.97,4.08,4.149,5.48,6.27C130.57,412.751,133.85,419.58,136.61,426.23z"
         id="path3205" /><path
         fill="#FFFFFF"
         d="M110.87,321.93c2.02-0.47,1.909,5.79,1.909,8.28c0,7.109-0.689,12.109-1.569,18.579    c-0.34,2.5-1.04,7.021-2.57,7.391c-1.7,0.39-3.39-1.43-4.479-2.24c-1.75-1.32-3.42-2.42-3.58-5.04c-0.17-2.74,0.88-5.5,1.56-7.72    c1.9-6.16,4.57-15.37,8.4-19.141C110.63,321.961,110.72,321.97,110.87,321.93z"
         id="path3207" /><path
         fill="#FFFFFF"
         d="M107.74,414.81c0.21,1.1,0.46,3.77-0.78,3.92c-0.97,0.11-1.7-1.92-2.13-2.91    c-2.48-5.729-5.061-11.66-7.391-17.46c-0.949-2.38-1.84-4.979-2.229-7.72c0.06-0.09,0.109-0.18,0.109-0.33    c0.091-0.021,0.101,0.04,0.11,0.11c0.07,0,0.15,0,0.22,0c3.101,3.76,5.46,8.17,7.841,12.979    C105.19,406.841,106.87,410.35,107.74,414.81z"
         id="path3209" /><path
         fill="#FFFFFF"
         d="M99.35,308.95c0.86,0.83,0.3,2.301,0,3.25c-0.32,0.98-0.859,2.011-1.229,2.801    c-0.83,1.739-1.891,3.859-3.7,4.359C93.67,316.37,97.1,309.72,99.35,308.95z"
         id="path3211" /><path
         d="M17.88,272.14c0,0.96,0,1.909,0,2.87C17.86,274.08,17.86,273.12,17.88,272.14z"
         id="path3213" /></g><path
       d="M123.41,190.445c0,0,35.729-27,74.396-13.333s12-13.333,7-14s-88.869,2.025-93.268,22.679S123.41,190.445,123.41,190.445z"
       id="path3215" /><path
       d="M310.356,170.445c0,0,69.117-13,95.117,6.667s-16.418-32.667-54.709-22s-47.979,10.347-46.635,12.507   S307.218,170.984,310.356,170.445z"
       id="path3217" /></g></svg>